<svg xmlns="http://www.w3.org/2000/svg" viewBox="0 0 64 64">
  <text transform="translate(115.07 -117)"/>
  <text transform="translate(102.195 -21)"/>
  <text transform="translate(196.725 -117)"/>
  <text transform="translate(295.065 -117)"/>
  <text transform="translate(391.435 -117)"/>
  <text transform="translate(489.75 -117)"/>
  <text transform="translate(21.23 -21)"/>
  <text transform="translate(188.05 -21)"/>
  <text transform="translate(309.25 -21)"/>
  <text transform="translate(501.615 -21)"/>
  <text transform="translate(9.155 75)"/>
  <text transform="translate(107.415 75)"/>
  <text transform="translate(199.525 75)"/>
  <text transform="translate(295.245 75)"/>
  <text transform="translate(399.38 75)"/>
  <text transform="translate(495.455 75)"/>
  <text transform="translate(12.11 171)"/>
  <text transform="translate(206.835 171)"/>
  <text transform="translate(308.61 171)"/>
  <text transform="translate(406.3 171)"/>
  <text transform="translate(496.89 171)"/>
  <text transform="translate(96.405 267)"/>
  <text transform="translate(186.435 267)"/>
  <text transform="translate(388.666 267)"/>
  <text transform="translate(-2.215 363)"/>
  <text transform="translate(207.38 363)"/>
  <text transform="translate(303.38 363)"/>
  <text transform="translate(399.38 363)"/>
  <text transform="translate(495.38 363)"/>
  <path fill="#ffffff" d="M61 2c-3.335 0-6.517.714-9.428 2H37.716C36.888 2.634 34.372 2 32 2s-4.888.634-5.716 2H12.428A23.253 23.253 0 0 0 3 2a1 1 0 0 0-1 1v8.586c0 1.077.399 2.084 1.101 2.887A26.9 26.9 0 0 0 3 17.208v17.635c-.636.803-1 1.8-1 2.861 0 1.526.768 2.944 2 3.797V49c0 7.168 5.832 13 13 13h30c7.168 0 13-5.832 13-13v-7.5a4.638 4.638 0 0 0 2-3.797 4.595 4.595 0 0 0-1-2.861V17.208a26.88 26.88 0 0 0-.101-2.734A4.369 4.369 0 0 0 62 11.586V3a1 1 0 0 0-1-1zm-1 9.586l-.001.008c-.056-.022-.109-.049-.17-.061-.293-.057-5.326-.999-9.997.313-.108.03-.217.059-.322.091a13.538 13.538 0 0 0-1.158.411c-.165.067-.329.131-.491.205-.207.094-.404.196-.601.299-.061.032-.124.061-.183.094-.056.031-.116.059-.172.09-.071.041-.138.088-.208.13-.106.063-.21.128-.312.195-.047.03-.096.058-.143.089-.11.074-.214.152-.32.229a9.818 9.818 0 0 0-.26.196l-.062.047c-.041.032-.086.062-.126.095a8.747 8.747 0 0 0-1.454 1.502c-.044.056-.091.111-.133.168-.035.047-.064.101-.099.149-.248.345-.474.703-.677 1.072-.025.045-.046.094-.07.139-.22.413-.413.836-.583 1.269l-.026.067c-1.345 3.475-1.215 7.425-.983 9.617h-3.43C38.49 15.038 48.085 4.58 60 4.023v7.563zm-8.441 1.906A4.986 4.986 0 0 1 53 17c0 2.757-2.243 5-5 5a4.962 4.962 0 0 1-4.005-2.017c.106-.353.229-.684.357-1.007A3.986 3.986 0 0 0 47 20c2.206 0 4-1.794 4-4 0-.797-.249-1.556-.68-2.2.383-.109.769-.216 1.186-.298l.053-.01zm-5.918 3.207c.176-.223.355-.441.55-.636l.011-.012c.018-.018.042-.032.06-.05.269-.263.565-.505.881-.733.054-.039.109-.075.164-.113.154-.105.327-.195.492-.292.182-.108.357-.221.552-.319.408.374.649.899.649 1.456 0 1.103-.897 2-2 2-.67 0-1.289-.346-1.654-.894.018-.026.034-.055.052-.08.08-.115.162-.221.243-.327zm-2.153 5.633A6.93 6.93 0 0 0 48 24c3.86 0 7-3.14 7-7a6.968 6.968 0 0 0-1.133-3.799c2.083-.132 3.94.057 4.896.189.301 2.172.906 8.992-2.663 12.561-3.56 3.561-10.388 2.96-12.562 2.661-.16-1.165-.403-3.663-.05-6.28zM30 7.844a12.907 12.907 0 0 0 4 0V10h-4V7.844zM32 4c2.347 0 3.717.673 3.975 1-.258.327-1.628 1-3.975 1s-3.717-.673-3.975-1c.258-.327 1.628-1 3.975-1zM4 4.023C15.915 4.58 25.51 15.038 25.982 28h-3.43c.232-2.192.362-6.142-.984-9.617a12.159 12.159 0 0 0-.61-1.338c-.024-.045-.045-.092-.069-.137-.204-.37-.43-.728-.679-1.075-.034-.047-.063-.1-.097-.147-.042-.057-.089-.111-.133-.168a8.859 8.859 0 0 0-.768-.883c-.017-.017-.037-.032-.054-.048a9.254 9.254 0 0 0-.631-.569c-.048-.039-.101-.074-.149-.113l-.042-.032a9.65 9.65 0 0 0-.258-.194c-.105-.077-.209-.155-.318-.228-.052-.035-.107-.066-.16-.1a9.42 9.42 0 0 0-.308-.192c-.066-.039-.129-.084-.195-.122-.056-.032-.115-.06-.172-.091-.064-.035-.131-.067-.197-.101a11.917 11.917 0 0 0-.599-.297c-.152-.069-.306-.129-.461-.192a12.89 12.89 0 0 0-1.159-.413c-.127-.039-.258-.074-.388-.11-4.659-1.293-9.661-.358-9.953-.302-.06.012-.114.039-.17.061.003-.001.002-.003.002-.006V4.023zm16.459 24.589c-2.172.3-8.992.906-12.561-2.663-3.561-3.56-2.96-10.389-2.661-12.562a25.384 25.384 0 0 1 4.898-.192A6.981 6.981 0 0 0 9 17c0 3.86 3.14 7 7 7a6.93 6.93 0 0 0 4.508-1.665c.352 2.616.111 5.114-.049 6.277zm-2.102-11.915c.083.107.165.215.246.33.018.025.033.053.051.078A1.995 1.995 0 0 1 17 18c-1.103 0-2-.897-2-2 0-.557.241-1.082.649-1.457.196.098.371.212.553.319.168.099.344.191.5.297.05.034.1.067.149.102.34.244.661.502.947.788.199.199.38.422.559.648zM17 20c.995 0 1.93-.384 2.648-1.024.129.323.252.655.357 1.008A4.963 4.963 0 0 1 16 22c-2.757 0-5-2.243-5-5 0-1.321.521-2.577 1.443-3.511.436.084.837.197 1.237.311A3.953 3.953 0 0 0 13 16c0 2.206 1.794 4 4 4zm30 40H17c-6.065 0-11-4.935-11-11v-6.483l3 1.412V48c0 4.962 4.038 9 9 9h28c4.962 0 9-4.038 9-9v-4.071l3-1.412V49c0 6.065-4.935 11-11 11zm1.323-5.405l-2.466-4.11c-.361-.603-1.354-.603-1.715 0L41.434 55H22.566l-2.709-4.515c-.361-.603-1.354-.603-1.715 0l-2.466 4.11C12.957 53.634 11 51.045 11 48v-3.13l6.985 3.287a4.599 4.599 0 0 0 4.033-.048l8.811-4.406a2.63 2.63 0 0 1 2.343 0l8.811 4.406a4.609 4.609 0 0 0 4.032.048L53 44.87V48c0 3.045-1.957 5.634-4.677 6.595zm-2.096.394c-.076.002-.15.011-.227.011h-2.234L45 52.944l1.227 2.045zM20.234 55H18c-.077 0-.151-.009-.227-.011L19 52.944 20.234 55zm38.262-14.927l-13.333 6.274a2.609 2.609 0 0 1-2.287-.027l-8.811-4.406c-.646-.323-1.356-.484-2.065-.484s-1.419.162-2.066.485l-8.811 4.406a2.605 2.605 0 0 1-2.287.027L5.504 40.073A2.63 2.63 0 0 1 4 37.703c0-.901.455-1.729 1.216-2.211a2.602 2.602 0 0 1 2.519-.159l10.251 4.824a4.599 4.599 0 0 0 4.033-.048l8.811-4.406a2.63 2.63 0 0 1 2.343 0l8.811 4.406a4.598 4.598 0 0 0 4.033.048l10.251-4.824a2.607 2.607 0 0 1 2.519.159A2.611 2.611 0 0 1 60 37.703c0 1.01-.59 1.94-1.504 2.37zM59 33.385a4.592 4.592 0 0 0-3.586.139l-10.251 4.824a2.605 2.605 0 0 1-2.287-.027l-8.811-4.406a4.647 4.647 0 0 0-4.132 0l-8.811 4.406a2.605 2.605 0 0 1-2.287.027L8.586 33.523A4.592 4.592 0 0 0 5 33.385v-7.953a9.838 9.838 0 0 0 1.485 1.932c2.861 2.861 7.231 3.491 10.528 3.491 2.471 0 4.339-.354 4.514-.388a.995.995 0 0 0 .657-.467H27a1 1 0 0 0 1-1c0-9.713-4.776-18.243-11.923-23h10.207c.336.553.948.986 1.716 1.305V11a1 1 0 0 0 1 1h6a1 1 0 0 0 1-1V7.305c.768-.319 1.38-.752 1.716-1.305h10.207C40.776 10.757 36 19.287 36 29a1 1 0 0 0 1 1h4.816a.998.998 0 0 0 .657.467c.175.034 2.042.388 4.514.388 3.296 0 7.668-.63 10.528-3.491A9.868 9.868 0 0 0 59 25.432v7.953z"/>
  <path d="M28 31h2v2h-2zM34 31h2v2h-2z"/>
</svg>
