<?xml version="1.0" ?><svg id="Layer_1_1_" style="enable-background:new 0 0 64 64;" version="1.1" viewBox="0 0 64 64" xml:space="preserve" xmlns="http://www.w3.org/2000/svg" xmlns:xlink="http://www.w3.org/1999/xlink"><g><text style="font-family:'Montserrat-Regular'; font-size:10px;" transform="matrix(1 0 0 1 -462.3398 -21.0002)"/><text transform="matrix(1 0 0 1 -364.9297 -21.0002)"><tspan style="font-family:'Montserrat-Regular'; font-size:10px;" x="0" y="0"/><tspan style="font-family:'Montserrat-Regular'; font-size:10px;" x="6.82" y="0"/><tspan style="font-family:'Montserrat-Regular'; font-size:10px;" x="2.055" y="12"/><tspan style="font-family:'Montserrat-Regular'; font-size:10px;" x="9.115" y="12"/><tspan style="font-family:'Montserrat-Regular'; font-size:10px;" x="16.314" y="12"/></text><text transform="matrix(1 0 0 1 -377.8047 74.9998)"><tspan style="font-family:'Montserrat-Regular'; font-size:10px;" x="0" y="0"/><tspan style="font-family:'Montserrat-Regular'; font-size:10px;" x="36.31" y="0"/><tspan style="font-family:'Montserrat-Regular'; font-size:10px;" x="43.51" y="0"/></text><text transform="matrix(1 0 0 1 -283.2751 -21.0002)"><tspan style="font-family:'Montserrat-Regular'; font-size:10px;" x="0" y="0"/><tspan style="font-family:'Montserrat-Regular'; font-size:10px;" x="19.58" y="0"/><tspan style="font-family:'Montserrat-Regular'; font-size:10px;" x="26.9" y="0"/></text><text transform="matrix(1 0 0 1 -184.9346 -21.0002)"><tspan style="font-family:'Montserrat-Regular'; font-size:10px;" x="0" y="0"/><tspan style="font-family:'Montserrat-Regular'; font-size:10px;" x="21.21" y="0"/><tspan style="font-family:'Montserrat-Regular'; font-size:10px;" x="28.78" y="0"/></text><text transform="matrix(1 0 0 1 -88.5645 -21.0002)"><tspan style="font-family:'Montserrat-Regular'; font-size:10px;" x="0" y="0"/><tspan style="font-family:'Montserrat-Regular'; font-size:10px;" x="0.465" y="12"/><tspan style="font-family:'Montserrat-Regular'; font-size:10px;" x="5.865" y="12"/></text><text transform="matrix(1 0 0 1 9.75 -21.0002)"><tspan style="font-family:'Montserrat-Regular'; font-size:10px;" x="0" y="0"/><tspan style="font-family:'Montserrat-Regular'; font-size:10px;" x="23.25" y="0"/><tspan style="font-family:'Montserrat-Regular'; font-size:10px;" x="30.45" y="0"/></text><text transform="matrix(1 0 0 1 -458.77 74.9998)"><tspan style="font-family:'Montserrat-Regular'; font-size:10px;" x="0" y="0"/><tspan style="font-family:'Montserrat-Regular'; font-size:10px;" x="-16.564" y="12"/></text><text transform="matrix(1 0 0 1 -291.9497 74.9998)"><tspan style="font-family:'Montserrat-Regular'; font-size:10px;" x="0" y="0"/><tspan style="font-family:'Montserrat-Regular'; font-size:10px;" x="36.759" y="0"/><tspan style="font-family:'Montserrat-Regular'; font-size:10px;" x="43.959" y="0"/></text><text transform="matrix(1 0 0 1 -170.75 74.9998)"><tspan style="font-family:'Montserrat-Regular'; font-size:10px;" x="0" y="0"/><tspan style="font-family:'Montserrat-Regular'; font-size:10px;" x="7.06" y="0"/><tspan style="font-family:'Montserrat-Regular'; font-size:10px;" x="15.13" y="0"/></text><text style="font-family:'Montserrat-Regular'; font-size:10px;" transform="matrix(1 0 0 1 -75.54 74.9998)"/><text transform="matrix(1 0 0 1 21.6152 74.9998)"><tspan style="font-family:'Montserrat-Regular'; font-size:10px;" x="0" y="0"/><tspan style="font-family:'Montserrat-Regular'; font-size:10px;" x="5.47" y="0"/></text><text transform="matrix(1 0 0 1 -470.8447 170.9998)"><tspan style="font-family:'Montserrat-Regular'; font-size:10px;" x="0" y="0"/><tspan style="font-family:'Montserrat-Regular'; font-size:10px;" x="14.98" y="0"/><tspan style="font-family:'Montserrat-Regular'; font-size:10px;" x="22.18" y="0"/><tspan style="font-family:'Montserrat-Regular'; font-size:10px;" x="4.645" y="12"/><tspan style="font-family:'Montserrat-Regular'; font-size:10px;" x="12.215" y="12"/></text><text transform="matrix(1 0 0 1 -372.585 170.9998)"><tspan style="font-family:'Montserrat-Regular'; font-size:10px;" x="0" y="0"/><tspan style="font-family:'Montserrat-Regular'; font-size:10px;" x="6.29" y="0"/><tspan style="font-family:'Montserrat-Regular'; font-size:10px;" x="-4.495" y="12"/></text><text transform="matrix(1 0 0 1 -280.4746 170.9998)"><tspan style="font-family:'Montserrat-Regular'; font-size:10px;" x="0" y="0"/><tspan style="font-family:'Montserrat-Regular'; font-size:10px;" x="7.23" y="0"/><tspan style="font-family:'Montserrat-Regular'; font-size:10px;" x="15.05" y="0"/></text><text transform="matrix(1 0 0 1 -184.7549 170.9998)"><tspan style="font-family:'Montserrat-Regular'; font-size:10px;" x="0" y="0"/><tspan style="font-family:'Montserrat-Regular'; font-size:10px;" x="13.445" y="12"/></text><text transform="matrix(1 0 0 1 -80.6201 170.9998)"><tspan style="font-family:'Montserrat-Regular'; font-size:10px;" x="0" y="0"/><tspan style="font-family:'Montserrat-Regular'; font-size:10px;" x="6.22" y="0"/><tspan style="font-family:'Montserrat-Regular'; font-size:10px;" x="12.51" y="0"/><tspan style="font-family:'Montserrat-Regular'; font-size:10px;" x="19.71" y="0"/><tspan style="font-family:'Montserrat-Regular'; font-size:10px;" x="-6.004" y="12"/></text><text transform="matrix(1 0 0 1 15.4551 170.9998)"><tspan style="font-family:'Montserrat-Regular'; font-size:10px;" x="0" y="0"/><tspan style="font-family:'Montserrat-Regular'; font-size:10px;" x="9.25" y="0"/><tspan style="font-family:'Montserrat-Regular'; font-size:10px;" x="17.07" y="0"/></text><text transform="matrix(1 0 0 1 -467.8896 266.9998)"><tspan style="font-family:'Montserrat-Regular'; font-size:10px;" x="0" y="0"/><tspan style="font-family:'Montserrat-Regular'; font-size:10px;" x="6.73" y="0"/><tspan style="font-family:'Montserrat-Regular'; font-size:10px;" x="12.13" y="0"/><tspan style="font-family:'Montserrat-Regular'; font-size:10px;" x="1.18" y="12"/></text><text style="font-family:'Montserrat-Regular'; font-size:10px;" transform="matrix(1 0 0 1 -369.4346 266.9998)"/><text transform="matrix(1 0 0 1 -273.165 266.9998)"><tspan style="font-family:'Montserrat-Regular'; font-size:10px;" x="0" y="0"/><tspan style="font-family:'Montserrat-Regular'; font-size:10px;" x="14.32" y="0"/><tspan style="font-family:'Montserrat-Regular'; font-size:10px;" x="19.72" y="0"/><tspan style="font-family:'Montserrat-Regular'; font-size:10px;" x="-3.04" y="12"/></text><text transform="matrix(1 0 0 1 -171.3901 266.9998)"><tspan style="font-family:'Montserrat-Regular'; font-size:10px;" x="0" y="0"/><tspan style="font-family:'Montserrat-Regular'; font-size:10px;" x="15.29" y="0"/></text><text transform="matrix(1 0 0 1 -73.7002 266.9998)"><tspan style="font-family:'Montserrat-Regular'; font-size:10px;" x="0" y="0"/><tspan style="font-family:'Montserrat-Regular'; font-size:10px;" x="6.92" y="0"/><tspan style="font-family:'Montserrat-Regular'; font-size:10px;" x="13.61" y="0"/></text><text transform="matrix(1 0 0 1 16.8901 266.9998)"><tspan style="font-family:'Montserrat-Regular'; font-size:10px;" x="0" y="0"/><tspan style="font-family:'Montserrat-Regular'; font-size:10px;" x="-3.875" y="12"/></text><text style="font-family:'Montserrat-Regular'; font-size:10px;" transform="matrix(1 0 0 1 -473.5347 362.9998)"/><text transform="matrix(1 0 0 1 -383.5947 362.9998)"><tspan style="font-family:'Montserrat-Regular'; font-size:10px;" x="0" y="0"/><tspan style="font-family:'Montserrat-Regular'; font-size:10px;" x="7.32" y="0"/><tspan style="font-family:'Montserrat-Regular'; font-size:10px;" x="42.58" y="0"/><tspan style="font-family:'Montserrat-Regular'; font-size:10px;" x="49.76" y="0"/></text><text transform="matrix(1 0 0 1 -293.5649 362.9998)"><tspan style="font-family:'Montserrat-Regular'; font-size:10px;" x="0" y="0"/><tspan style="font-family:'Montserrat-Regular'; font-size:10px;" x="21.17" y="0"/><tspan style="font-family:'Montserrat-Regular'; font-size:10px;" x="28.89" y="0"/><tspan style="font-family:'Montserrat-Regular'; font-size:10px;" x="38.939" y="0"/><tspan style="font-family:'Montserrat-Regular'; font-size:10px;" x="44.31" y="0"/><tspan style="font-family:'Montserrat-Regular'; font-size:10px;" x="62.649" y="0"/><tspan style="font-family:'Montserrat-Regular'; font-size:10px;" x="69.339" y="0"/><tspan style="font-family:'Montserrat-Regular'; font-size:10px;" x="22.855" y="12"/><tspan style="font-family:'Montserrat-Regular'; font-size:10px;" x="28.605" y="12"/><tspan style="font-family:'Montserrat-Regular'; font-size:10px;" x="36.425" y="12"/></text><text style="font-family:'Montserrat-Regular'; font-size:10px;" transform="matrix(1 0 0 1 -170.7451 362.9998)"/><text transform="matrix(1 0 0 1 -91.3345 362.9998)"><tspan style="font-family:'Montserrat-Regular'; font-size:10px;" x="0" y="0"/><tspan style="font-family:'Montserrat-Regular'; font-size:10px;" x="9.265" y="12"/><tspan style="font-family:'Montserrat-Regular'; font-size:10px;" x="31.654" y="12"/><tspan style="font-family:'Montserrat-Regular'; font-size:10px;" x="39.615" y="12"/></text><text style="font-family:'Montserrat-Regular'; font-size:10px;" transform="matrix(1 0 0 1 13.2202 362.9998)"/><text transform="matrix(1 0 0 1 -482.2148 458.9998)"><tspan style="font-family:'Montserrat-Regular'; font-size:10px;" x="0" y="0"/><tspan style="font-family:'Montserrat-Regular'; font-size:10px;" x="6.82" y="0"/></text><text style="font-family:'Montserrat-Regular'; font-size:10px;" transform="matrix(1 0 0 1 -363.5249 458.9998)"/><text transform="matrix(1 0 0 1 -272.6201 458.9998)"><tspan style="font-family:'Montserrat-Regular'; font-size:10px;" x="0" y="0"/><tspan style="font-family:'Montserrat-Regular'; font-size:10px;" x="6.22" y="0"/><tspan style="font-family:'Montserrat-Regular'; font-size:10px;" x="12.51" y="0"/><tspan style="font-family:'Montserrat-Regular'; font-size:10px;" x="19.71" y="0"/><tspan style="font-family:'Montserrat-Regular'; font-size:10px;" x="-21.344" y="12"/><tspan style="font-family:'Montserrat-Regular'; font-size:10px;" x="-8.994" y="12"/><tspan style="font-family:'Montserrat-Regular'; font-size:10px;" x="-2.104" y="12"/></text><text transform="matrix(1 0 0 1 -176.6201 458.9998)"><tspan style="font-family:'Montserrat-Regular'; font-size:10px;" x="0" y="0"/><tspan style="font-family:'Montserrat-Regular'; font-size:10px;" x="6.22" y="0"/><tspan style="font-family:'Montserrat-Regular'; font-size:10px;" x="12.51" y="0"/><tspan style="font-family:'Montserrat-Regular'; font-size:10px;" x="19.71" y="0"/><tspan style="font-family:'Montserrat-Regular'; font-size:10px;" x="-0.16" y="12"/><tspan style="font-family:'Montserrat-Regular'; font-size:10px;" x="7.75" y="12"/><tspan style="font-family:'Montserrat-Regular'; font-size:10px;" x="15.71" y="12"/></text><text transform="matrix(1 0 0 1 -80.6201 458.9998)"><tspan style="font-family:'Montserrat-Regular'; font-size:10px;" x="0" y="0"/><tspan style="font-family:'Montserrat-Regular'; font-size:10px;" x="6.22" y="0"/><tspan style="font-family:'Montserrat-Regular'; font-size:10px;" x="12.51" y="0"/><tspan style="font-family:'Montserrat-Regular'; font-size:10px;" x="19.71" y="0"/><tspan style="font-family:'Montserrat-Regular'; font-size:10px;" x="-8.28" y="12"/><tspan style="font-family:'Montserrat-Regular'; font-size:10px;" x="23.7" y="12"/><tspan style="font-family:'Montserrat-Regular'; font-size:10px;" x="28.8" y="12"/></text><text transform="matrix(1 0 0 1 15.3799 458.9998)"><tspan style="font-family:'Montserrat-Regular'; font-size:10px;" x="0" y="0"/><tspan style="font-family:'Montserrat-Regular'; font-size:10px;" x="6.22" y="0"/><tspan style="font-family:'Montserrat-Regular'; font-size:10px;" x="12.51" y="0"/><tspan style="font-family:'Montserrat-Regular'; font-size:10px;" x="19.71" y="0"/><tspan style="font-family:'Montserrat-Regular'; font-size:10px;" x="5.855" y="12"/><tspan style="font-family:'Montserrat-Regular'; font-size:10px;" x="12.775" y="12"/></text></g><g/><path d="M32,2C15.458,2,2,15.458,2,32c0,0.36,0.193,0.692,0.507,0.87l27.467,15.59l-6.467,3.671C23.193,52.308,23,52.64,23,53  c0,4.962,4.037,9,9,9s9-4.038,9-9c0-0.36-0.193-0.692-0.507-0.87l-6.467-3.671l27.467-15.59C61.807,32.692,62,32.36,62,32  C62,15.458,48.542,2,32,2z M38.978,53.569C38.687,57.164,35.668,60,32,60s-6.687-2.836-6.978-6.431L32,49.609L38.978,53.569z   M32,47.31l-9.982-5.665C22.208,36.296,26.606,32,32,32s9.792,4.296,9.982,9.644L32,47.31z M43.904,40.553  C43.186,34.617,38.127,30,32,30s-11.186,4.617-11.904,10.553l-16.09-9.132C4.314,16.248,16.754,4,32,4s27.686,12.248,27.994,27.421  L43.904,40.553z"/><rect height="19" width="2" x="31" y="7"/><rect height="2.001" transform="matrix(0.3328 -0.943 0.943 0.3328 9.9091 51.0054)" width="18.028" x="31.986" y="17.5"/><rect height="2" transform="matrix(0.6402 -0.7682 0.7682 0.6402 -1.1662 45.5102)" width="15.62" x="40.19" y="23"/><rect height="2" transform="matrix(0.8575 -0.5145 0.5145 0.8575 -8.6815 30.657)" width="11.662" x="45.169" y="30"/><rect height="18.028" transform="matrix(0.943 -0.3328 0.3328 0.943 -4.8459 8.7095)" width="2.001" x="22" y="9.486"/><rect height="15.62" transform="matrix(0.7682 -0.6402 0.6402 0.7682 -11.656 15.8056)" width="2" x="15" y="16.19"/><rect height="11.662" transform="matrix(0.5145 -0.8575 0.8575 0.5145 -20.2707 26.198)" width="2" x="12" y="25.169"/></svg>